<svg xmlns="http://www.w3.org/2000/svg" viewBox="0 0 64 64" fill="none">
  <rect width="64" height="64" rx="14" fill="#2C2825"/>
  <g stroke="#C9A882" stroke-linecap="round">
    <line x1="32" y1="24" x2="32" y2="12" stroke-width="2.2" opacity="0.9" />
    <line x1="32" y1="24" x2="32" y2="12" stroke-width="2.2" opacity="0.9" transform="rotate(-30 32 36)" />
    <line x1="32" y1="24" x2="32" y2="12" stroke-width="2.2" opacity="0.9" transform="rotate(30 32 36)" />
    <line x1="32" y1="24" x2="32" y2="14" stroke-width="2.2" opacity="0.8" transform="rotate(-60 32 36)" />
    <line x1="32" y1="24" x2="32" y2="14" stroke-width="2.2" opacity="0.8" transform="rotate(60 32 36)" />
    <line x1="32" y1="24" x2="32" y2="16" stroke-width="1.5" opacity="0.5" transform="rotate(-15 32 36)" />
    <line x1="32" y1="24" x2="32" y2="16" stroke-width="1.5" opacity="0.5" transform="rotate(15 32 36)" />
    <line x1="32" y1="24" x2="32" y2="16" stroke-width="1.5" opacity="0.5" transform="rotate(-45 32 36)" />
    <line x1="32" y1="24" x2="32" y2="16" stroke-width="1.5" opacity="0.5" transform="rotate(45 32 36)" />
  </g>
  <path d="M 18 36 A 14 14 0 0 1 46 36" fill="#C9A882" opacity="0.85" />
  <path d="M 10 36 Q 21 42 32 36 Q 43 30 54 36" stroke="#C9A882" stroke-width="2" stroke-linecap="round" opacity="0.6" fill="none" />
  <path d="M 14 42 Q 23 46 32 42 Q 41 38 50 42" stroke="#C9A882" stroke-width="1.5" stroke-linecap="round" opacity="0.3" fill="none" />
</svg>
